<svg width="300" height="300" viewBox="0 0 300 300" fill="none" xmlns="http://www.w3.org/2000/svg">
<rect x="22.5" y="22.5" width="255" height="255" rx="36.5" fill="#040000" stroke="#A6A6A6" stroke-width="5"/>
<path d="M63 74C69.9754 74 72.2835 81.4978 78.8333 82.8889C89.6523 85.1867 100.201 78.6787 109.833 74.8889C112.658 73.7774 111.316 76.3341 112.167 78.3889C113.675 82.035 115.854 79.6561 118 81.4444C123.409 85.952 126.471 87 133.556 87C143.275 87 153.288 87.7376 162.944 86.6111C175.18 85.1836 187.415 80 199.722 80C202.9 80 206.541 79.4748 209.667 80.2222C213.799 81.2104 216.628 84 221 84" stroke="white" stroke-width="3" stroke-linecap="round"/>
<path d="M76 130C78.3561 137.952 76.9717 147.815 76.5556 156C76.3507 160.029 80.1435 154.405 81.4444 153.111C85.4429 149.135 91.6931 139.634 97.4444 138.056C101.454 136.955 98.0424 152.59 105.889 151C112.275 149.706 118.818 145.848 124.778 143.333C127.008 142.392 132.727 138.755 135.444 141.222C136.898 142.542 137.018 145.002 138.556 146.222C143.218 149.92 155.393 144.963 159.444 143.944C165.454 142.434 174.418 137.93 180.111 142.556C185.927 147.281 188.202 146.356 194.278 140.5C197.776 137.128 199.588 130.75 204.389 130C208.085 129.422 211.929 143.018 213.778 145.222C217.67 149.861 221.194 145.806 224 143" stroke="white" stroke-width="3" stroke-linecap="round"/>
<path d="M84 219C87.8469 214.737 92.3924 210.956 97.3333 208C103.129 204.533 100.457 210.579 103.444 212.944C106.684 215.509 118.547 209.224 121.5 208.222C123.851 207.424 128.36 205.173 131.278 206.611C139.702 210.762 140.344 217.894 151.556 219.556C160.367 220.862 168.092 218.631 176.333 216.111C179.302 215.203 182.547 211.759 185.222 213.333C186.841 214.285 185.8 217.112 186.667 218.778C190.187 225.548 196.751 222.965 202.278 220.222C204.396 219.171 214.017 209.868 216.111 214.056C217.857 217.547 219.688 216.662 223 216" stroke="white" stroke-width="3" stroke-linecap="round"/>
</svg>
